<?xml version="1.0" standalone="no"?>
<!DOCTYPE svg PUBLIC "-//W3C//DTD SVG 20010904//EN"
 "http://www.w3.org/TR/2001/REC-SVG-20010904/DTD/svg10.dtd">
<svg version="1.0" xmlns="http://www.w3.org/2000/svg"
 width="1080.000000pt" height="1080.000000pt" viewBox="0 0 1080.000000 1080.000000"
 preserveAspectRatio="xMidYMid meet">

<g transform="translate(0.000000,1080.000000) scale(0.100000,-0.100000)"
fill="#000000" stroke="none">
<path d="M6950 10117 c-604 -578 -1273 -995 -1960 -1223 -74 -25 -240 -74
-367 -110 -625 -172 -850 -261 -1098 -428 -179 -122 -298 -269 -369 -460 l-31
-81 -3 -1072 -3 -1072 38 -24 c21 -13 333 -187 693 -387 1885 -1048 2224
-1238 2228 -1248 1 -5 -95 -122 -215 -259 -121 -136 -433 -491 -694 -788 -261
-297 -578 -657 -703 -800 -341 -388 -894 -1017 -1128 -1284 -114 -130 -205
-237 -204 -239 3 -2 393 210 1061 578 143 79 328 180 410 225 83 45 267 146
410 225 280 154 1095 601 1340 735 83 45 242 133 355 195 113 62 322 177 465
255 143 78 315 173 383 210 l122 67 0 1243 0 1242 -457 251 c-1394 762 -1689
924 -1695 931 -4 3 39 26 95 50 151 65 456 220 584 298 263 159 506 348 706
550 l107 108 -2 1187 -3 1187 -65 -62z"/>
</g>
</svg>
